<svg width="137" height="60" viewBox="0 0 137 60" fill="none"
    xmlns="http://www.w3.org/2000/svg">
    <path d="M135.027 0H133.175L132.709 1.12174L132.158 2.43478L131.113 4.95652L130.597 6.19826C130.597 6.19826 130.589 6.21739 130.585 6.22696C130.583 6.23239 130.581 6.23763 130.578 6.24261L130.573 6.25652C130.573 6.25652 130.573 6.25652 130.573 6.26174C130.399 6.67913 130.205 7.0913 129.993 7.49304C129.546 8.33471 129.015 9.12966 128.409 9.86609C127.8 10.6073 127.119 11.2863 126.376 11.893C124.17 13.7054 121.473 14.8193 118.629 15.0922C118.611 15.0958 118.592 15.0982 118.573 15.0991H118.558C118.351 15.1154 118.144 15.0761 117.958 14.9852C117.772 14.8944 117.614 14.7554 117.5 14.5826C117.386 14.4099 117.321 14.2099 117.311 14.0034C117.301 13.7969 117.347 13.5915 117.444 13.4087C118.02 12.3176 118.356 11.1162 118.43 9.88484C118.503 8.65352 118.313 7.42072 117.87 6.26894C117.428 5.11716 116.745 4.07298 115.865 3.2063C114.986 2.33961 113.932 1.6704 112.773 1.24348L112.722 1.22435C111.2 0.675493 109.555 0.562374 107.972 0.897765C106.389 1.23316 104.932 2.0037 103.765 3.12237C102.597 4.24104 101.766 5.66328 101.366 7.22848C100.966 8.79367 101.011 10.4395 101.498 11.98C102.047 13.7087 103.125 15.2218 104.581 16.3061C104.636 16.3487 104.693 16.393 104.75 16.4287C104.806 16.4643 104.863 16.5087 104.924 16.5478C105.971 17.2732 107.095 17.8806 108.276 18.3591C108.477 18.4409 108.679 18.5186 108.88 18.5922C112.527 19.9266 116.519 19.9936 120.209 18.7826C122.833 17.9243 125.215 16.4545 127.157 14.4948L124.701 20.4157L123.285 23.8261L121.867 27.2426L120.909 29.5539L110.773 53.9887L108.646 59.1139H116.365L125.699 29.5565L134.898 0.426087L134.905 0.405217L135.033 0H135.027Z" fill="#F9F8E4"/>
    <path d="M53.9571 13.5504L16.6647 0L16.1883 1.3087L50.1517 13.6522C50.4173 13.7482 50.6606 13.897 50.867 14.0895C51.0734 14.2821 51.2386 14.5143 51.3526 14.7724C51.4665 15.0304 51.5269 15.3088 51.5301 15.5908C51.5333 15.8728 51.4792 16.1525 51.3711 16.413L50.6569 18.1357L50.6308 18.2009L50.5724 18.34C50.4496 18.633 50.3111 18.9209 50.1613 19.2026C49.825 19.8371 49.4258 20.4363 48.9698 20.9913C48.5105 21.5495 47.997 22.061 47.4368 22.5183C45.7746 23.882 43.7428 24.72 41.6012 24.9252L41.5594 24.9304H41.5463C41.3899 24.9438 41.2328 24.9147 41.0916 24.8463C40.9504 24.7778 40.8304 24.6726 40.7442 24.5416C40.6579 24.4106 40.6088 24.2588 40.6019 24.1023C40.595 23.9457 40.6306 23.7902 40.7049 23.6522C41.1409 22.8289 41.3951 21.922 41.4506 20.9924C41.5061 20.0628 41.3616 19.1322 41.0267 18.263C40.6919 17.3939 40.1744 16.6064 39.5093 15.9536C38.8441 15.3007 38.0466 14.7977 37.1705 14.4783L9.1611 4.30435L8.44862 6.26522L31.9436 14.8026C31.1591 15.2059 30.4638 15.7628 29.8994 16.44C29.2006 17.281 28.7241 18.2835 28.5134 19.3558C28.3027 20.4281 28.3644 21.536 28.6931 22.5783L27.6287 22.1913L5.56216 14.1739L4.60929 16.7904L34.25 27.5652C36.9983 28.5701 40.0057 28.6197 42.7857 27.7061C44.7633 27.0602 46.5579 25.9524 48.0204 24.4748L37.2105 50.5391C36.7993 51.5345 36.0187 52.3327 35.0319 52.767C34.045 53.2013 32.9283 53.238 31.9149 52.8696L1.43017 41.7922L0 45.7122L39.2913 60L53.9597 13.5513L53.9571 13.5504ZM37.1417 21.5304C36.2908 23.7774 34.6089 25.1913 33.3834 24.6896C32.1579 24.1878 31.8548 21.9591 32.7049 19.7122C33.555 17.4652 35.2386 16.0504 36.4632 16.553C37.6878 17.0557 37.9918 19.2835 37.1417 21.5304Z" fill="#2A2D25"/>
    <path d="M53.2412 45.8696L53.5547 48.7191L53.4606 48.3478C53.8998 47.4268 54.6035 46.657 55.4822 46.1365C56.3921 45.5817 57.4742 45.3044 58.7284 45.3044C59.9617 45.3044 60.9912 45.6745 61.8169 46.4148C62.6426 47.1551 63.066 48.0994 63.0869 49.2478V59.1122H59.5759V50.5348C59.555 49.867 59.3669 49.3296 59.0115 48.9226C58.6561 48.5157 58.0917 48.3017 57.3183 48.2809C56.6221 48.2761 55.944 48.5017 55.3899 48.9226C54.7965 49.3737 54.3405 49.9807 54.073 50.6757C53.7699 51.4165 53.6183 52.2771 53.6183 53.2574V59.1122H50.1056V45.8696H53.2412Z" fill="#2A2D25"/>
    <path d="M82.4908 40.047H86.0026V45.8731H89.4509V48.5974H86.0017V59.1191H82.4908V48.5974H80.2018V45.8696H82.4908V40.047Z" fill="#2A2D25"/>
    <path d="M97.0286 59.4565C95.5026 59.4565 94.1804 59.1536 93.0621 58.5478C91.9825 57.9815 91.0937 57.1106 90.5066 56.0435C89.9189 54.9803 89.6251 53.7594 89.6251 52.3809C89.6251 51.0475 89.9596 49.8478 90.6285 48.7817C91.3003 47.7147 92.2339 46.8365 93.3408 46.2304C94.4956 45.5892 95.7978 45.2596 97.1191 45.2739C98.9378 45.2739 100.438 45.8006 101.619 46.8539C102.8 47.9072 103.589 49.3945 103.986 51.3157L93.2937 54.9148L92.5098 52.9435L100.819 49.9696L100.129 50.4044C99.9002 49.7593 99.5105 49.183 98.997 48.7296C98.4744 48.2588 97.7532 48.0238 96.8335 48.0244C96.1477 48.0121 95.4729 48.1968 94.8894 48.5565C94.3228 48.9144 93.8626 49.4174 93.5568 50.013C93.2328 50.6287 93.0708 51.3435 93.0708 52.1574C93.0708 53.0548 93.2485 53.8217 93.6038 54.4583C93.938 55.0732 94.4375 55.5828 95.0462 55.9296C95.6785 56.2806 96.3923 56.4587 97.1157 56.4461C97.651 56.4475 98.1822 56.3521 98.6834 56.1643C99.1849 55.9768 99.6594 55.7239 100.094 55.4122L101.694 58.0113C100.985 58.4583 100.221 58.8109 99.4203 59.06C98.648 59.3133 97.8414 59.447 97.0286 59.4565Z" fill="#2A2D25"/>
    <path d="M64.3097 53.2887C64.2979 52.157 64.6641 51.0537 65.3506 50.1531C66.0474 49.2296 67.0223 48.502 68.2754 47.9704C69.5284 47.4388 70.9714 47.1733 72.6042 47.1739C74.2562 47.1739 75.6881 47.4394 76.8999 47.9704C78.1118 48.5015 79.0437 49.229 79.6958 50.1531C80.3435 51.0696 80.6846 52.1671 80.6704 53.2887C80.683 54.4133 80.3421 55.5136 79.6958 56.4348C79.0449 57.367 78.1141 58.1032 76.9034 58.6435C75.6927 59.1838 74.2387 59.4539 72.5415 59.4539C70.9551 59.4539 69.5397 59.2099 68.2954 58.7217C67.051 58.2336 66.0749 57.5293 65.3671 56.6087C64.6616 55.6846 64.3091 54.578 64.3097 53.2887ZM69.2352 54.3522C69.5522 55.1451 70.0171 55.8707 70.6053 56.4904C71.1714 57.0777 71.7811 57.489 72.4343 57.7244C73.0391 57.9586 73.706 57.9782 74.3235 57.78C74.9936 57.562 75.4901 57.1757 75.8129 56.6209C76.1358 56.0661 76.2885 55.4067 76.2711 54.6426C76.2388 53.8136 76.0528 52.9978 75.7223 52.2365C75.4061 51.4397 74.9494 50.7058 74.374 50.0696C73.8853 49.5244 73.2727 49.1043 72.5876 48.8444C71.9499 48.6093 71.2507 48.6001 70.607 48.8183C70.0144 49.0047 69.5148 49.4087 69.2091 49.9487C68.8839 50.5046 68.7172 51.1609 68.7091 51.9174C68.701 52.6739 68.8763 53.4855 69.2352 54.3522Z" fill="#2A2D25"/>
    <path d="M65.618 33.4922C64.6851 33.4947 63.7631 33.2916 62.9179 32.8974C62.1099 32.5396 61.4086 31.9787 60.8824 31.2696L61.0705 30.2052V39.5026H57.5865V19.6522H60.5653L61.1027 22.6957L60.7265 21.7878C61.4285 21.0698 62.2442 20.4723 63.1409 20.0191C64.0606 19.5496 65.1058 19.3148 66.2764 19.3148C67.5307 19.3148 68.6542 19.607 69.6472 20.1913C70.6435 20.7796 71.4533 21.6369 71.9832 22.6644C72.5476 23.7287 72.8298 25.0017 72.8298 26.4835C72.8298 27.9455 72.5162 29.1977 71.8891 30.24C71.2772 31.2697 70.3857 32.1054 69.3179 32.6504C68.2309 33.2116 66.9976 33.4922 65.618 33.4922ZM64.9281 30.7096C65.6833 30.7187 66.4283 30.5343 67.0917 30.1739C67.7442 29.8194 68.2876 29.294 68.6633 28.6541C69.039 28.0143 69.2328 27.2842 69.2239 26.5426C69.2239 25.7084 69.041 24.9728 68.6751 24.3357C68.3239 23.7148 67.8157 23.1967 67.2014 22.833C66.5797 22.4669 65.8695 22.2774 65.1476 22.2852C64.5292 22.277 63.9156 22.3954 63.3447 22.633C62.8188 22.8584 62.3481 23.1948 61.965 23.6191C61.5725 24.0581 61.2785 24.5757 61.1027 25.1374V27.7983C61.2219 28.3486 61.4689 28.8633 61.8239 29.3009C62.187 29.745 62.6486 30.0987 63.1722 30.3339C63.7232 30.5847 64.3226 30.7118 64.9281 30.7061V30.7096Z" fill="#2A2D25"/>
    <path d="M74.084 15.1165C74.0815 14.8642 74.1367 14.6146 74.2453 14.3868C74.354 14.1589 74.5133 13.9588 74.7111 13.8017C75.0906 13.4624 75.5813 13.2732 76.0907 13.2696C76.5959 13.2713 77.0822 13.461 77.4547 13.8017C77.6506 13.9664 77.807 14.1728 77.9125 14.4057C78.0181 14.6387 78.0699 14.8922 78.0644 15.1478C78.0679 15.3986 78.015 15.6469 77.9094 15.8745C77.8039 16.1021 77.6485 16.303 77.4547 16.4626C77.0827 16.804 76.5961 16.9939 76.0907 16.9948C75.5811 16.9922 75.0901 16.8028 74.7111 16.4626C74.5106 16.3009 74.3498 16.0955 74.2411 15.8622C74.1324 15.6289 74.0787 15.3738 74.084 15.1165ZM74.2408 19.9061H77.7526V33.1478H74.2408V19.9061Z" fill="#2A2D25"/>
    <path d="M91.2042 31.9583C90.5444 32.4454 89.8087 32.8209 89.0267 33.0696C88.2034 33.3475 87.3404 33.4902 86.4712 33.4922C85.008 33.4922 83.7172 33.2052 82.5988 32.6313C81.5206 32.0953 80.6218 31.2578 80.012 30.2209C79.4058 29.1878 79.1029 27.9513 79.1035 26.5113C79.1041 25.0713 79.4333 23.8348 80.0912 22.8017C80.7295 21.7866 81.6277 20.9599 82.6929 20.407C83.7401 19.8523 84.9078 19.5632 86.0932 19.5652C87.222 19.5652 88.2147 19.7165 89.0711 20.0191C89.8734 20.2915 90.6177 20.7109 91.266 21.2557L89.5737 23.5409C89.1592 23.2365 88.7119 22.9793 88.2402 22.7739C87.6617 22.5251 87.0366 22.4024 86.4068 22.4139C85.7344 22.4092 85.0751 22.5995 84.5089 22.9617C83.9358 23.326 83.4618 23.826 83.1292 24.4174C82.7843 25.0238 82.6122 25.7229 82.6127 26.5148C82.6052 27.2382 82.7888 27.9508 83.1449 28.5809C83.4901 29.197 83.9933 29.7102 84.603 30.0678C85.2219 30.4313 85.9379 30.6116 86.7508 30.6087C87.7122 30.6282 88.6518 30.3217 89.4161 29.7391L91.2042 31.9583Z" fill="#2A2D25"/>
    <path d="M92.4575 33.1478V8.73044H95.9694V33.1478H92.4575ZM94.8719 29.1722L94.5235 25.7913L102.582 19.593L104.714 21.4713L94.8719 29.1722ZM99.2269 24.2261L105.279 33.1478H101.209L96.91 26.2609L99.2269 24.2261Z" fill="#2A2D25"/>
    <path d="M110.431 33.7113C109.24 33.7113 108.253 33.3409 107.47 32.6C106.687 31.8591 106.274 30.9055 106.23 29.7391V19.9131H109.745V28.4522C109.766 29.1409 109.944 29.6887 110.278 30.0957C110.613 30.5026 111.146 30.7055 111.877 30.7044C112.545 30.7125 113.195 30.4852 113.712 30.0626C114.245 29.6354 114.668 29.0458 114.981 28.2939C115.305 27.4883 115.465 26.6263 115.452 25.7583V19.9061H118.964V33.1478H115.797L115.515 30.2365L115.609 30.6713C115.337 31.2791 114.942 31.8239 114.448 32.2713C113.938 32.7364 113.341 33.0978 112.692 33.3357C111.968 33.5959 111.202 33.7231 110.431 33.7113Z" fill="#2A2D25"/>
    <path d="M129.004 33.4922C128.071 33.4947 127.15 33.2916 126.304 32.8974C125.495 32.5399 124.793 31.9791 124.266 31.2696L124.454 30.2052V39.5026H120.97V19.6522H123.949L124.482 22.6887L124.116 21.7844C124.818 21.0664 125.634 20.4688 126.531 20.0157C127.451 19.5461 128.496 19.3113 129.666 19.3113C130.921 19.3113 132.044 19.6035 133.037 20.1878C134.033 20.7762 134.843 21.6334 135.373 22.6609C135.937 23.7252 136.22 24.9983 136.22 26.48C136.22 27.942 135.906 29.1942 135.279 30.2365C134.667 31.2662 133.776 32.1019 132.708 32.647C131.619 33.2104 130.384 33.4922 129.004 33.4922ZM128.315 30.7096C129.069 30.7181 129.812 30.5337 130.475 30.1739C131.127 29.8194 131.671 29.294 132.046 28.6541C132.422 28.0143 132.616 27.2842 132.607 26.5426C132.607 25.7084 132.424 24.9728 132.058 24.3357C131.707 23.7148 131.199 23.1967 130.584 22.833C129.963 22.4669 129.252 22.2774 128.531 22.2852C127.912 22.277 127.298 22.3954 126.728 22.633C126.202 22.8584 125.731 23.1948 125.348 23.6191C124.955 24.0581 124.661 24.5757 124.486 25.1374V27.7983C124.605 28.3486 124.852 28.8633 125.207 29.3009C125.57 29.7438 126.032 30.0962 126.555 30.3304C127.107 30.5829 127.708 30.7112 128.315 30.7061V30.7096Z" fill="#2A2D25"/>
</svg>
