<svg width="29" height="28" viewBox="0 0 29 28" fill="none"
    xmlns="http://www.w3.org/2000/svg">
    <g clip-path="url(#clip0_708_1269)">
        <path d="M15.1182 0.214111C7.46675 0.214111 1.28613 6.39058 1.28613 14C1.28613 21.6259 7.48328 27.7859 15.1182 27.7859C22.7696 27.7859 28.9502 21.6094 28.9502 14C28.9502 6.39058 22.753 0.214111 15.1182 0.214111ZM21.464 20.1106C21.2162 20.5223 20.6873 20.6376 20.2742 20.3906C17.0186 18.4141 12.9368 17.9694 8.11126 19.0565C7.64854 19.1553 7.18582 18.8753 7.08666 18.4141C6.98751 17.9529 7.26844 17.4918 7.73116 17.3929C13.0029 16.1906 17.5309 16.7012 21.1666 18.9247C21.5797 19.1718 21.7119 19.6988 21.464 20.1106ZM23.1497 16.3553C22.8357 16.8659 22.1746 17.0141 21.6623 16.7176C17.9441 14.4447 12.2757 13.7859 7.8799 15.1035C7.3015 15.2682 6.70657 14.9553 6.54131 14.3953C6.37606 13.8188 6.69004 13.2259 7.26844 13.0612C12.2923 11.5459 18.539 12.2706 22.8192 14.8894C23.3149 15.1859 23.4637 15.8447 23.1497 16.3553ZM23.2984 12.4353C18.8365 9.79999 11.4825 9.55293 7.21887 10.8376C6.54131 11.0518 5.81418 10.6565 5.59935 9.98117C5.38451 9.30588 5.78113 8.58117 6.45868 8.36705C11.3503 6.8847 19.481 7.18117 24.6039 10.2118C25.2154 10.5741 25.4137 11.3647 25.0501 11.9741C24.7196 12.6 23.9098 12.7976 23.2984 12.4353Z" fill="#191414"/>
    </g>
    <defs>
        <clipPath id="clip0_708_1269">
            <rect width="28.4242" height="28" fill="white" transform="translate(0.575684)"/>
        </clipPath>
    </defs>
</svg>
